<?xml version="1.0" encoding="UTF-8"?><svg id="Layer_1" xmlns="http://www.w3.org/2000/svg" viewBox="0 0 431.19 431.19"><defs><style>.cls-1{stroke-width:4px;}.cls-1,.cls-2,.cls-3,.cls-4{stroke:#fff;stroke-miterlimit:10;}.cls-1,.cls-3,.cls-4{fill:none;}.cls-5,.cls-2{fill:#3f8e7d;}.cls-5,.cls-6{stroke-width:0px;}.cls-2,.cls-3{stroke-width:6px;}.cls-4{stroke-width:7px;}.cls-6{fill:#fff;}</style></defs><circle class="cls-5" cx="215.6" cy="215.6" r="215.6"/><line class="cls-3" x1="162.11" y1="79.51" x2="162.11" y2="291.45"/><line class="cls-4" x1="56.14" y1="185.48" x2="268.08" y2="185.48"/><line class="cls-4" x1="238.63" y1="112.17" x2="85.6" y2="258.8"/><line class="cls-4" x1="88.8" y1="108.97" x2="235.43" y2="262"/><line class="cls-4" x1="260.3" y1="145.61" x2="63.93" y2="225.35"/><line class="cls-4" x1="122.24" y1="87.3" x2="201.99" y2="283.66"/><line class="cls-4" x1="66.16" y1="144.7" x2="262.53" y2="224.45"/><line class="cls-4" x1="204.22" y1="86.39" x2="124.48" y2="282.76"/><circle class="cls-2" cx="162.11" cy="185.48" r="65.53"/><circle class="cls-6" cx="277.03" cy="313.55" r="48.52"/><path class="cls-6" d="M305,283.46c-.75-.24-1.5-.47-2.26-.69V101.69c0-7.68-10.67-13.91-23.83-13.91h-6.07c-13.16,0-23.83,6.23-23.83,13.91v181.38c-.41.13-.82.26-1.23.39h57.22Z"/><circle class="cls-5" cx="277.03" cy="313.55" r="24.65"/><rect class="cls-5" x="264.26" y="140.14" width="24.25" height="158.68"/><line class="cls-1" x1="272.99" y1="174.88" x2="300.92" y2="174.88"/><line class="cls-1" x1="278.06" y1="162.44" x2="299.42" y2="162.44"/><line class="cls-1" x1="272.99" y1="150.01" x2="300.92" y2="150.01"/><line class="cls-1" x1="272.99" y1="199.75" x2="300.92" y2="199.75"/><line class="cls-1" x1="278.06" y1="187.31" x2="299.42" y2="187.31"/><line class="cls-1" x1="272.99" y1="224.8" x2="300.92" y2="224.8"/><line class="cls-1" x1="278.06" y1="212.33" x2="299.42" y2="212.33"/><line class="cls-1" x1="272.99" y1="251.15" x2="300.92" y2="251.15"/><line class="cls-1" x1="278.06" y1="238.68" x2="299.42" y2="238.68"/><line class="cls-1" x1="272.99" y1="277.5" x2="300.92" y2="277.5"/><line class="cls-1" x1="278.06" y1="265.02" x2="299.42" y2="265.02"/><line class="cls-1" x1="277.84" y1="289.97" x2="299.2" y2="289.97"/></svg>